<svg xmlns="http://www.w3.org/2000/svg" width="56.71" height="42.401" viewBox="0 0 56.71 42.401"><g transform="translate(0 -55.155)"><g transform="translate(0 55.155)"><g transform="translate(0)"><path d="M56.309,90.946a43.267,43.267,0,0,0-1.349-5.033h0V81.762a26.586,26.586,0,1,0-53.173-.031v4.151a43.958,43.958,0,0,0-1.432,5.1c-.4,1.681-.716,3.777.54,5.189.913.944,2.3,1.391,4.649,1.391a38.6,38.6,0,0,0,5.189-.446c8.3-1.141,17.641-1.411,17.641-1.411s9.4.28,17.641,1.411c5.749.8,8.385.529,9.755-.975S56.725,92.637,56.309,90.946Zm-3.424-9.215v3.03c-.726-.2-1.474-.384-2.221-.56h-.052q-3.622-.882-7.409-1.442V81.721c0-10.284-3.113-19.021-7.752-23.463A24.542,24.542,0,0,1,52.885,81.731Zm-3.113,7.627c-.789.872-4.047.54-6.434.208-7.025-.975-14.891-1.193-14.954-1.193s-7.928.218-14.954,1.193c-2.387.332-5.645.664-6.434-.208-.332-.374-.342-1.235,0-2.574l.156-.623A104.4,104.4,0,0,1,29.111,83.8,89.245,89.245,0,0,1,49.647,86.11l.166.675c.291,1.308.291,2.169-.052,2.542ZM28.374,57.23c7.036,0,12.754,10.989,12.754,24.511v.706A96.115,96.115,0,0,0,29.08,81.7a106.757,106.757,0,0,0-13.49.861v-.82C15.62,68.22,21.338,57.23,28.374,57.23ZM3.863,81.731A24.553,24.553,0,0,1,21.3,58.268c-4.649,4.441-7.752,13.179-7.752,23.463v1.11a91.31,91.31,0,0,0-9.682,1.93V81.731Zm50.4,13.023h0c-1.038,1.11-4.763.747-7.928.311-8.3-1.141-17.88-1.432-17.963-1.432s-9.672.291-17.963,1.432c-3.113.436-6.922.8-7.928-.311-.457-.508-.477-1.588-.062-3.29C3.1,88.7,3.458,87.5,3.6,86.992l1.256-.332c-.291,1.359-.425,2.947.581,4.057,1.349,1.494,4.151,1.442,8.3.872,6.839-.944,14.632-1.162,14.632-1.173s7.835.228,14.694,1.173a31.921,31.921,0,0,0,4.244.363c1.847,0,3.207-.332,4.016-1.235,1.038-1.11.872-2.708.581-4.068l1.266.342c.166.508.519,1.712,1.183,4.462C54.743,93.167,54.722,94.246,54.265,94.754Z" transform="translate(0 -55.155)"/></g></g><g transform="translate(17.997 65.864)"><g transform="translate(0 0)"><path d="M149.12,137.715c-5.811,0-10.377,2.9-10.377,6.59s4.556,6.59,10.377,6.59S159.5,148,159.5,144.3,154.931,137.715,149.12,137.715Zm0,11.093c-4.493,0-8.3-2.075-8.3-4.514s3.8-4.514,8.3-4.514,8.3,2.075,8.3,4.514S153.614,148.808,149.12,148.808Z" transform="translate(-138.743 -137.715)"/></g></g></g></svg>