<svg xmlns="http://www.w3.org/2000/svg" width="63" height="63" viewBox="0 0 63 63"><defs><style>.a{fill:none;stroke:#000;stroke-linecap:round;stroke-linejoin:round;stroke-width:3px;}</style></defs><g transform="translate(-1.5 -1.5)"><path class="a" d="M63,33A30,30,0,1,1,33,3,30,30,0,0,1,63,33Z" transform="translate(0 0)"/><path class="a" d="M36,24A12,12,0,1,1,24,12,12,12,0,0,1,36,24Z" transform="translate(9 9)"/><path class="a" d="M7.4,7.4l12.72,12.72" transform="translate(4.395 4.395)"/><path class="a" d="M22.245,22.245l12.72,12.72" transform="translate(19.245 19.245)"/><path class="a" d="M22.245,20.115,34.965,7.4" transform="translate(19.245 4.395)"/><path class="a" d="M22.245,19.05,32.835,8.46" transform="translate(19.245 5.46)"/><path class="a" d="M7.4,34.965l12.72-12.72" transform="translate(4.395 19.245)"/></g></svg>