<svg xmlns="http://www.w3.org/2000/svg" width="15" height="19.286" viewBox="0 0 15 19.286"><defs><style>.a{fill:none;stroke-linecap:round;stroke-linejoin:round;}.b,.c{stroke:none;}.c{fill:#9e9e9e;}</style></defs><g class="a" transform="translate(-7.5 -4.5)"><path class="b" d="M22.5,23.786,15,18.429,7.5,23.786V6.643A2.143,2.143,0,0,1,9.643,4.5H20.357A2.143,2.143,0,0,1,22.5,6.643Z"/><path class="c" d="M 20 18.9277400970459 L 20 6.999996662139893 L 9.999999046325684 6.999996662139893 L 9.999999046325684 18.9277400970459 L 13.54689884185791 16.39423751831055 C 14.41615009307861 15.77334594726562 15.5838508605957 15.77334594726562 16.45309829711914 16.39423751831055 L 20 18.9277400970459 M 22.5 23.78571701049805 L 14.99999904632568 18.42856597900391 L 7.499999046325684 23.78571701049805 L 7.499999046325684 6.642856597900391 C 7.499999046325684 5.459386825561523 8.459388732910156 4.499996662139893 9.64285945892334 4.499996662139893 L 20.35714912414551 4.499996662139893 C 21.54060935974121 4.499996662139893 22.5 5.459386825561523 22.5 6.642856597900391 L 22.5 23.78571701049805 Z"/></g></svg>