<svg xmlns="http://www.w3.org/2000/svg" width="35" height="66.901" viewBox="0 0 35 66.901"><path d="M132.909,58.429V50.885a1.525,1.525,0,0,0,.3-.191c3.229-3.229,2.652-17.279,2.57-18.971a21.647,21.647,0,0,0-5.469-14.836,17.314,17.314,0,0,0-6.7-4.535,7.094,7.094,0,1,0-9.512,0,17.314,17.314,0,0,0-6.7,4.535,21.647,21.647,0,0,0-5.469,14.836c-.082,1.693-.659,15.742,2.569,18.971a1.536,1.536,0,0,0,.3.191v7.544a4.278,4.278,0,1,0,1.574-.016V50.87a2.792,2.792,0,0,0,1.3-1.781c.621-1.765.467-8.783.467-9.288,0-5,6.355-5.25,7.629-5.25h6.167c1.274,0,7.629.253,7.629,5.25,0,5.134.07,7.833.467,9.288a2.553,2.553,0,0,0,1.3,1.782v7.542a4.275,4.275,0,1,0,1.574.016Zm1.241-28.3a7.443,7.443,0,0,0-4.414-1.446h-3.814l3.767-4.6,4.407,5.385C134.118,29.687,134.135,29.909,134.15,30.131ZM126.121,15.39l-1.849,2.259L120.635,13.2A14.19,14.19,0,0,1,126.121,15.39Zm-12.787-8.3a5.52,5.52,0,1,1,8.684,4.521,4.2,4.2,0,0,0,.728-1.2.787.787,0,0,0-1.464-.578,2.611,2.611,0,0,1-4.858,0,.787.787,0,0,0-1.464.578,4.213,4.213,0,0,0,.729,1.2A5.524,5.524,0,0,1,113.334,7.094Zm3.742,6.11-3.638,4.445-1.85-2.26A14.191,14.191,0,0,1,117.076,13.2Zm-6.763,3.112,2.516,3.074a.787.787,0,0,0,1.218,0l4.808-5.874,4.808,5.874a.787.787,0,0,0,1.218,0l2.515-3.073a16.6,16.6,0,0,1,1.321,1.185l-4.445,5.431-4.808-5.874a.787.787,0,0,0-1.218,0l-4.808,5.874L108.992,17.5A16.549,16.549,0,0,1,110.313,16.316ZM106.5,20.659l1.522-1.86,4.809,5.874a.787.787,0,0,0,1.218,0l4.808-5.874,4.808,5.874a.787.787,0,0,0,1.218,0l4.808-5.874,1.519,1.856a19.624,19.624,0,0,1,2.359,5.682L130.3,22.342a.787.787,0,0,0-1.218,0l-4.808,5.874-4.808-5.874a.787.787,0,0,0-1.218,0l-4.808,5.874-4.809-5.874a.787.787,0,0,0-1.218,0l-3.271,4A19.633,19.633,0,0,1,106.5,20.659Zm16.114,8.013H115.1l3.756-4.589ZM108.02,24.083l3.768,4.6h-3.817a7.444,7.444,0,0,0-4.412,1.443c.015-.221.032-.442.054-.66Zm.314,38.542a2.7,2.7,0,1,1-2.7-2.7A2.706,2.706,0,0,1,108.335,62.624Zm-1.769-27.2v5.812c-.014,3.991-.1,6.295-.409,7.438a1.054,1.054,0,0,1-.658.786c-2.475-3.1-2.052-15.989-2.051-16,.243-3.149,4.352-3.2,4.526-3.2h.384C108.258,30.353,106.565,31.626,106.565,35.424Zm23,.212a6.818,6.818,0,0,0-1.625-1.269,12.655,12.655,0,0,0-6.007-1.39h-6.167a12.654,12.654,0,0,0-6.006,1.39,6.829,6.829,0,0,0-1.625,1.269,7.24,7.24,0,0,1,1.107-4.039,4.343,4.343,0,0,1,3.271-1.339H125.19a4.658,4.658,0,0,1,3.271,1.339C129.673,32.872,129.569,35.636,129.569,35.636Zm1.574,5.681V35.424c0-3.676-1.693-5.071-1.793-5.166h.384c.183,0,4.282.038,4.525,3.2,0,.017.362,13.213-2.049,16a1.054,1.054,0,0,1-.658-.786C131.242,47.539,131.158,45.258,131.143,41.317Zm.934,24.01a2.7,2.7,0,1,1,2.7-2.7A2.706,2.706,0,0,1,132.077,65.327Z" transform="translate(-101.354)"/></svg>