<svg xmlns="http://www.w3.org/2000/svg" width="80" height="36.205" viewBox="0 0 80 36.205"><g transform="translate(0 -112.79)"><path d="M79.27,131.014a5.364,5.364,0,0,0-4.116-2.74c-15.181-1.208-27.355-7.43-33.206-10.421-1.433-.732-4.249-1.978-4.525-2.085l-6.486-2.894a.971.971,0,0,0-1.134.256,7.172,7.172,0,0,0-1.573,5.733c-2.465,1.784-6.475,4.068-6.762,4.235a4.132,4.132,0,0,1-2.137.572c-3.56,0-7.315-3.938-8.134-4.847-.734-3.7-3.1-4.266-4.466-4.266a5.486,5.486,0,0,0-1.947.36.97.97,0,0,0-.534.546c-3.188,8.234-4.595,14.829-4.18,19.6a9.167,9.167,0,0,0,1.478,4.727l-.943,5.12a.974.974,0,0,0,.031.473C.755,145.756,2.05,149,10.764,149H54.827c.369,0,15.376-1.426,22.636-7.342a.971.971,0,0,0,.291-.4s1.764-4.509,1.767-4.517A7.045,7.045,0,0,0,79.27,131.014ZM66,128.905a72.531,72.531,0,0,0,7.582,1.175,41.09,41.09,0,0,1-6.026,1.584c-4.291.843-4.9,1.114-8.181,3.631-2.093,1.606-12.211,1.451-21.228-.9l9.224-6.455a50.308,50.308,0,0,0,7.446,2.614C59.349,131.727,64.084,131.352,66,128.905Zm-34.437,5.34a59.708,59.708,0,0,0,16.668,3.822c1.122.1,2.861.222,4.714.222a31.407,31.407,0,0,0,3.339-.162l-4.988,4.462a127.123,127.123,0,0,1-16.5-1.47,135.5,135.5,0,0,0-13.8-1.294c-1.067-1.8-2.141-3.446-3.2-4.941C19.572,133.743,24.561,131.316,31.561,134.246Zm-.334-2.211,8.859-5.8.022-.015a3.261,3.261,0,0,1,3.036-.126l2.145.925L35.744,133.7c-1.187-.374-2.339-.789-3.433-1.247C31.944,132.3,31.583,132.163,31.227,132.035Zm6.925-13.887c-1.1.611-1.189.676-1.233.708a.971.971,0,0,0,1.124,1.583c.167-.1,1.2-.676,2.246-1.252.248.126,1.725.881,2.253,1.147-.435.293-.832.562-.948.646a.971.971,0,0,0,1.137,1.574c.154-.111,1.047-.712,1.811-1.225q1.036.506,2.2,1.047l-.662.639a.971.971,0,0,0,1.349,1.4l1.216-1.175q1.02.45,2.12.905l-.472.727a.971.971,0,1,0,1.629,1.056l.678-1.045q1.189.464,2.453.918l-.327.633a.971.971,0,1,0,1.725.89l.455-.882q1.132.377,2.315.735l-.094.2a.971.971,0,1,0,1.752.836l.232-.487q1.281.354,2.614.675c-6.013,3.189-15.063-2.08-19.815-4.08a5.271,5.271,0,0,0-4.9.3l-10.244,6.7a15.626,15.626,0,0,0-12.129,1.993c-.884-1.174-1.749-2.243-2.584-3.213a17.166,17.166,0,0,0,3.874.448c5.5,0,10.1-2.694,13.766-5.363a4.927,4.927,0,0,0,2.346-3.836,5.271,5.271,0,0,0-1.351-3.4,3.607,3.607,0,0,1,2.02-.912A13.437,13.437,0,0,1,38.152,118.148Zm-7.295-3.184,1.7.761a22.509,22.509,0,0,0-2.47,1.739A5.1,5.1,0,0,1,30.857,114.965Zm-8.411,9.811c.855-.395,8.643-5.629,8.693-5.668a3.43,3.43,0,0,1,.966,2.2,3.133,3.133,0,0,1-1.549,2.308c-3.388,2.469-7.639,4.966-12.665,4.966a15.547,15.547,0,0,1-4.217-.59,8.639,8.639,0,0,0,3.426-2.73,7.71,7.71,0,0,0,2.231.351A7.384,7.384,0,0,0,22.446,124.776ZM5.893,116.6a3.636,3.636,0,0,1,.839-.1c1.419,0,2.27.957,2.6,2.926a.973.973,0,0,0,.214.463,21.022,21.022,0,0,0,5.693,4.609,8.745,8.745,0,0,1-4.164,2.388,34.805,34.805,0,0,0-5.632-4.706.971.971,0,0,0-.969-.029l-.6.323C4.408,120.7,5.072,118.752,5.893,116.6Zm-2.738,8.462,1.724-.926c1.69,1.19,7.823,5.924,13.794,15.61-1.76-.046-4.695-.126-6.5-.057-1.382.053-7.55-.065-8.993-.948C2.906,138.435.528,135.4,3.155,125.064ZM76.04,140.3c-6.694,5.265-20.406,6.667-21.259,6.749H10.764c-6.039,0-7.775-1.6-8.185-2.136l.734-3.987c1.822.643,8.434.695,8.869.7a206.912,206.912,0,0,1,22.33,1.411,126,126,0,0,0,17.294,1.493,69.51,69.51,0,0,0,9.28-.828c4.917-.679,12.089-3.608,15.7-5.311Zm1.754-4.555c-1.939.965-11.236,5.246-16.9,6.025-.614.084-4.225.658-6.633.766l6.878-6.152c2.513-1.906,3.067-2.089,6.789-2.82,2.5-.491,6.649-1.454,8.512-2.728a3.589,3.589,0,0,1,1.163,1.168A4.662,4.662,0,0,1,77.794,135.75Z" transform="translate(0 0)"/></g></svg>