<svg xmlns="http://www.w3.org/2000/svg" width="60" height="59.897" viewBox="0 0 60 59.897"><g transform="translate(0 -0.344)"><path d="M59.828,16.477S51.513,6.141,50.38,5.1A20.839,20.839,0,0,0,37.262.344a.746.746,0,0,0-.745.721c0,.04-.008.2-.035.454,0,.008,0,.016-.006.025-.371.391-2.614,1.1-6.485,1.1s-6.108-.713-6.47-1.1c-.029-.264-.036-.436-.038-.477a.745.745,0,0,0-.745-.722A21.155,21.155,0,0,0,9.619,5.1c-.6.4-9.448,11.373-9.448,11.373a.746.746,0,0,0,.032.988l7.232,7.658a.746.746,0,0,0,.8.187l2.459-.914V59.5a.745.745,0,0,0,.745.745H48.558A.745.745,0,0,0,49.3,59.5v-35.1l2.459.914a.746.746,0,0,0,.8-.187L59.8,17.465A.746.746,0,0,0,59.828,16.477ZM10.7,17.794V22.8L8.18,23.74,1.74,16.921,9.886,7.1C10.612,9.815,10.724,15.509,10.7,17.794ZM29.991,4.136a22.715,22.715,0,0,0,6.119-.781c-.62,2.072-2.183,4.8-6.11,4.8s-5.488-2.725-6.109-4.8A22.78,22.78,0,0,0,29.991,4.136ZM47.813,17.794V58.751H12.186V17.8c.012-.949.07-8.841-1.144-11.939A19.9,19.9,0,0,1,22.059,1.847a11.633,11.633,0,0,0,1.006,3.471,7.265,7.265,0,0,0,6.922,4.328h.025a7.265,7.265,0,0,0,6.922-4.328A11.633,11.633,0,0,0,37.94,1.847,19.905,19.905,0,0,1,48.957,5.864C47.743,8.962,47.8,16.853,47.813,17.794Zm4.006,5.946L49.3,22.8V17.785c-.028-2.277.083-7.97.81-10.681l8.146,9.817Z" transform="translate(0 0)"/><path d="M137.431,118.654l-3.087-6.342a10.893,10.893,0,0,0-6.666-13.694l-3.01-6.184a.745.745,0,0,0-1.34,0l-3.01,6.184a10.893,10.893,0,0,0-6.665,13.693l-3.115,6.4a.745.745,0,0,0,.67,1.071h25.583a.745.745,0,0,0,.639-1.128Zm-4.021-9.774a9.448,9.448,0,0,1-.094,1.32l-4.606-9.462A9.415,9.415,0,0,1,133.41,108.88Zm-.684,3.515a9.408,9.408,0,0,1-17.456,0l6.11-12.553a9.366,9.366,0,0,1,5.235,0ZM124,94.464l1.783,3.662a10.8,10.8,0,0,0-3.565,0Zm-9.411,14.416a9.415,9.415,0,0,1,4.7-8.142l-4.605,9.461A9.442,9.442,0,0,1,114.587,108.88Zm-2.187,9.411,2.036-4.182a10.978,10.978,0,0,0,4.07,4.182Zm17.091,0a10.981,10.981,0,0,0,4.07-4.182l2.036,4.182Z" transform="translate(-93.999 -78.008)"/></g></svg>