<svg xmlns="http://www.w3.org/2000/svg" width="34.94" height="56.471" viewBox="0 0 34.94 56.471"><g transform="translate(-84.841)"><g transform="translate(84.841 0)"><g transform="translate(0)"><path d="M115.487,17.43,114.472.954A1.015,1.015,0,0,0,113.457,0H94.373a1.015,1.015,0,0,0-1.015.954L92.343,17.43a15.806,15.806,0,0,0-3.705,6.6H85.856a1.015,1.015,0,0,0-1.015,1.015v6.832a1.015,1.015,0,0,0,1.015,1.015H88.78a15.827,15.827,0,0,0,3.594,6.152l1.015,16.475a1.015,1.015,0,0,0,1.015.954h19.054a1.015,1.015,0,0,0,1.015-.954l1.015-16.475A15.745,15.745,0,0,0,115.487,17.43ZM88.079,30.849H86.871v-4.8h1.208ZM95.327,2.02h17.115l.812,13.481a15.714,15.714,0,0,0-18.78,0Zm17.115,52.41H95.327L94.515,40.95a15.714,15.714,0,0,0,18.78,0ZM103.9,42.036A13.806,13.806,0,1,1,117.71,28.23,13.806,13.806,0,0,1,103.9,42.036Z" transform="translate(-84.841 0)"/></g></g><g transform="translate(91.673 15.988)"><path d="M150.923,126h-.01a12.247,12.247,0,1,0,.01,0Zm1.015,22.393v-1.675a1.015,1.015,0,0,0-2.03,0v1.675a10.222,10.222,0,0,1-9.136-9.136h1.685a1.015,1.015,0,1,0,0-2.03h-1.7a10.222,10.222,0,0,1,9.136-9.136v1.685a1.015,1.015,0,1,0,2.03,0v-1.685a10.222,10.222,0,0,1,9.136,9.136h-1.675a1.015,1.015,0,1,0,0,2.03h1.685A10.222,10.222,0,0,1,151.938,148.393Z" transform="translate(-138.681 -126)"/></g><g transform="translate(97.733 27.215)"><g transform="translate(0)"><path d="M192.613,214.48h-5.157a1.015,1.015,0,0,0,0,2.03H191.6v2.619a1.015,1.015,0,1,0,2.03,0V215.5A1.015,1.015,0,0,0,192.613,214.48Z" transform="translate(-186.441 -214.48)"/></g></g></g></svg>