<svg xmlns="http://www.w3.org/2000/svg" width="58" height="61.51" viewBox="0 0 58 61.51"><defs><style>.a{fill:#212121;}</style></defs><g transform="translate(-10.821)"><path class="a" d="M39.222,32.087c3.082-1.2,4.711-3.243,4.843-6.069a16.568,16.568,0,0,0-1.487-6.463c-.127-.332-.248-.648-.352-.938V.811A.811.811,0,0,0,41.414,0H27.16a.811.811,0,0,0-.811.811V15.1a15.337,15.337,0,0,1-2.6,8.692L12.408,39.182a8.274,8.274,0,0,0-1.585,4.376,7.272,7.272,0,0,0,7.119,7.42,8.2,8.2,0,0,0,5.836-2.737L35.72,34.773A11.211,11.211,0,0,1,39.222,32.087Zm3.222-6.144C42.3,28.1,41.1,29.616,38.633,30.576a7.479,7.479,0,0,0-1.228.628,9.634,9.634,0,0,1,3.609-11.2C41.03,20.05,42.606,23.54,42.444,25.943ZM27.971,1.622H40.6V3.707H27.971Zm0,3.707H40.6V7.069H27.971Zm-10,44.028a5.649,5.649,0,0,1-5.531-5.765,5.994,5.994,0,0,1,1-3c1.643.585,6.423,2.653,8.288,7.44A5.625,5.625,0,0,1,17.975,49.357ZM34.5,33.7l-5.8,6.537a.8.8,0,0,0-.086-.105.811.811,0,1,0-.957,1.283l-4.714,5.316a12.5,12.5,0,0,0-.587-1.118c.016-.014.034-.025.049-.04a.812.812,0,0,0-.573-1.385.81.81,0,0,0-.376.1,16.535,16.535,0,0,0-7.057-5.08L19.2,32.7a.811.811,0,0,0,1.142-1.152.8.8,0,0,0-.192-.137l4.89-6.635a16.6,16.6,0,0,0,2.923-9.022.8.8,0,0,0,.085.009.811.811,0,0,0,0-1.622c-.024,0-.048.005-.072.007V8.692H40.6v5.466a.8.8,0,0,0-.142-.014.811.811,0,0,0,0,1.622.8.8,0,0,0,.142-.014v2.562a13.252,13.252,0,0,0-1.425,1.12.8.8,0,0,0,.024-.187.811.811,0,0,0-.811-.811.811.811,0,0,0,0,1.622.8.8,0,0,0,.151-.015,13.016,13.016,0,0,0-1.434,1.738c-.2.3-.406.624-.6.973a.8.8,0,0,0-.188-.024.811.811,0,0,0-.574,1.384.781.781,0,0,0,.1.082A10.889,10.889,0,0,0,35.8,31.51c-.017.014-.035.025-.05.041a.805.805,0,0,0-.111,1.007A14.453,14.453,0,0,0,34.5,33.7Z" transform="translate(0 0)"/><path class="a" d="M125.57,60.724a.815.815,0,1,0,.572.239A.819.819,0,0,0,125.57,60.724Z" transform="translate(-95.457 -50.874)"/><path class="a" d="M151.09,60.724a.815.815,0,1,0,.572.239A.818.818,0,0,0,151.09,60.724Z" transform="translate(-116.837 -50.874)"/><path class="a" d="M176.609,62.346a.809.809,0,1,0-.574-.237A.823.823,0,0,0,176.609,62.346Z" transform="translate(-138.217 -50.874)"/><path class="a" d="M138.33,87.194a.809.809,0,1,0,.574.237A.817.817,0,0,0,138.33,87.194Z" transform="translate(-106.147 -73.051)"/><path class="a" d="M163.849,88.816a.811.811,0,1,0,0-1.622.809.809,0,0,0-.572.237.812.812,0,0,0,.572,1.385Z" transform="translate(-127.527 -73.051)"/><path class="a" d="M125.57,113.654a.814.814,0,1,0,.572.238A.812.812,0,0,0,125.57,113.654Z" transform="translate(-95.457 -95.219)"/><path class="a" d="M151.09,113.654a.811.811,0,1,0,0,1.622.811.811,0,0,0,0-1.622Z" transform="translate(-116.837 -95.219)"/><path class="a" d="M112.809,140.124a.811.811,0,1,0,.573.237A.817.817,0,0,0,112.809,140.124Z" transform="translate(-84.766 -117.395)"/><path class="a" d="M138.33,140.124a.811.811,0,1,0,.572.237A.818.818,0,0,0,138.33,140.124Z" transform="translate(-106.147 -117.395)"/><path class="a" d="M100.05,166.584a.814.814,0,1,0,.573.238A.819.819,0,0,0,100.05,166.584Z" transform="translate(-74.076 -139.564)"/><path class="a" d="M125.57,166.584a.814.814,0,1,0,.572.238A.819.819,0,0,0,125.57,166.584Z" transform="translate(-95.457 -139.564)"/><path class="a" d="M151.09,166.584a.811.811,0,1,0,.811.811.814.814,0,0,0-.811-.811Z" transform="translate(-116.837 -139.564)"/><path class="a" d="M87.289,193.054a.811.811,0,1,0,.573.237A.817.817,0,0,0,87.289,193.054Z" transform="translate(-63.385 -161.74)"/><path class="a" d="M112.809,193.054a.811.811,0,1,0,.573.237A.817.817,0,0,0,112.809,193.054Z" transform="translate(-84.766 -161.74)"/><path class="a" d="M138.33,193.054a.809.809,0,1,0,.574.237A.817.817,0,0,0,138.33,193.054Z" transform="translate(-106.147 -161.74)"/><path class="a" d="M49.01,219.514a.812.812,0,1,0,.572.239A.818.818,0,0,0,49.01,219.514Z" transform="translate(-31.315 -183.908)"/><path class="a" d="M74.529,219.514a.814.814,0,1,0,.573.239A.818.818,0,0,0,74.529,219.514Z" transform="translate(-52.695 -183.908)"/><path class="a" d="M100.05,219.514a.814.814,0,1,0,.573.239A.818.818,0,0,0,100.05,219.514Z" transform="translate(-74.076 -183.908)"/><path class="a" d="M125.57,219.514a.815.815,0,1,0,.572.239A.819.819,0,0,0,125.57,219.514Z" transform="translate(-95.457 -183.908)"/><path class="a" d="M61.769,245.984a.811.811,0,1,0,.573.237A.816.816,0,0,0,61.769,245.984Z" transform="translate(-42.005 -206.085)"/><path class="a" d="M87.289,245.984a.811.811,0,1,0,.573.237A.816.816,0,0,0,87.289,245.984Z" transform="translate(-63.385 -206.085)"/><path class="a" d="M195.15,84.487c-.127-.332-.248-.648-.352-.938V65.743a.811.811,0,0,0-.811-.811H179.732a.811.811,0,0,0-.811.811V80.031a15.334,15.334,0,0,1-2.6,8.692c0,.006-11.335,15.384-11.34,15.391a8.271,8.271,0,0,0-1.585,4.375,7.272,7.272,0,0,0,7.119,7.42,8.194,8.194,0,0,0,5.836-2.737L188.292,99.7a11.212,11.212,0,0,1,3.5-2.686c3.082-1.2,4.711-3.243,4.843-6.069A16.571,16.571,0,0,0,195.15,84.487ZM180.543,66.554h12.632v2.085H180.543Zm0,3.707h12.632V72H180.543Zm-10,44.028a5.649,5.649,0,0,1-5.53-5.765,5.994,5.994,0,0,1,1-3c1.643.584,6.423,2.653,8.288,7.44A5.625,5.625,0,0,1,170.547,114.289Zm16.524-15.652-5.8,6.537a.811.811,0,1,0-1.044,1.177l-4.714,5.316a12.459,12.459,0,0,0-.587-1.118c.016-.014.034-.025.049-.04a.812.812,0,0,0-.572-1.385.808.808,0,0,0-.376.1,16.537,16.537,0,0,0-7.057-5.08l4.794-6.506a.811.811,0,0,0,1.142-1.152.8.8,0,0,0-.192-.137l4.89-6.635a16.6,16.6,0,0,0,2.923-9.022.846.846,0,0,0,.085.009.811.811,0,0,0,0-1.622c-.024,0-.048.005-.072.007V73.624h12.632V79.09a.8.8,0,0,0-.142-.014.811.811,0,0,0,0,1.622.8.8,0,0,0,.142-.014v2.562a13.232,13.232,0,0,0-1.425,1.12.8.8,0,0,0,.024-.187.811.811,0,1,0-.811.811.794.794,0,0,0,.151-.015,13.011,13.011,0,0,0-1.434,1.738c-.205.3-.407.624-.6.973a.8.8,0,0,0-.188-.024.811.811,0,0,0-.574,1.384.8.8,0,0,0,.1.082,10.89,10.89,0,0,0-.049,7.316c-.016.014-.034.025-.05.041a.805.805,0,0,0-.111,1.007A14.408,14.408,0,0,0,187.071,98.637Zm7.945-7.762c-.145,2.155-1.347,3.673-3.811,4.633a7.484,7.484,0,0,0-1.228.628,9.634,9.634,0,0,1,3.609-11.2C193.6,84.982,195.178,88.472,195.016,90.875Z" transform="translate(-127.824 -54.4)"/><path class="a" d="M278.14,125.655a.814.814,0,1,0,.573.239A.818.818,0,0,0,278.14,125.655Z" transform="translate(-223.28 -105.273)"/><path class="a" d="M303.661,125.655a.814.814,0,1,0,.573.239A.818.818,0,0,0,303.661,125.655Z" transform="translate(-244.661 -105.273)"/><path class="a" d="M329.181,127.277a.808.808,0,1,0-.574-.237A.822.822,0,0,0,329.181,127.277Z" transform="translate(-266.041 -105.273)"/><path class="a" d="M290.9,152.126a.808.808,0,1,0,.574.237A.816.816,0,0,0,290.9,152.126Z" transform="translate(-233.97 -127.451)"/><path class="a" d="M316.421,153.748a.811.811,0,1,0,0-1.622.81.81,0,0,0-.573.237.812.812,0,0,0,.573,1.385Z" transform="translate(-255.351 -127.451)"/><path class="a" d="M278.14,178.586a.814.814,0,1,0,.573.238A.811.811,0,0,0,278.14,178.586Z" transform="translate(-223.28 -149.619)"/><path class="a" d="M303.661,178.586a.811.811,0,1,0,0,1.622.811.811,0,0,0,0-1.622Z" transform="translate(-244.661 -149.619)"/><path class="a" d="M265.381,205.056a.811.811,0,1,0,.573.237A.818.818,0,0,0,265.381,205.056Z" transform="translate(-212.59 -171.795)"/><path class="a" d="M290.9,205.056a.811.811,0,1,0,.573.237A.817.817,0,0,0,290.9,205.056Z" transform="translate(-233.97 -171.795)"/><path class="a" d="M252.621,231.516a.814.814,0,1,0,.572.238A.819.819,0,0,0,252.621,231.516Z" transform="translate(-201.9 -193.963)"/><path class="a" d="M278.14,231.516a.814.814,0,1,0,.573.238A.818.818,0,0,0,278.14,231.516Z" transform="translate(-223.28 -193.963)"/><path class="a" d="M303.661,231.516a.814.814,0,1,0,.573.238A.819.819,0,0,0,303.661,231.516Z" transform="translate(-244.661 -193.963)"/><path class="a" d="M239.861,257.985a.811.811,0,1,0,.572.237A.818.818,0,0,0,239.861,257.985Z" transform="translate(-191.209 -216.139)"/><path class="a" d="M265.381,257.985a.811.811,0,1,0,.573.237A.818.818,0,0,0,265.381,257.985Z" transform="translate(-212.59 -216.139)"/><path class="a" d="M290.9,257.985a.808.808,0,1,0,.574.237A.817.817,0,0,0,290.9,257.985Z" transform="translate(-233.97 -216.139)"/><path class="a" d="M201.581,284.445a.811.811,0,1,0,.573.239A.818.818,0,0,0,201.581,284.445Z" transform="translate(-159.139 -238.307)"/><path class="a" d="M227.1,284.445a.815.815,0,1,0,.572.239A.818.818,0,0,0,227.1,284.445Z" transform="translate(-180.519 -238.307)"/><path class="a" d="M252.621,284.445a.815.815,0,1,0,.572.239A.818.818,0,0,0,252.621,284.445Z" transform="translate(-201.9 -238.307)"/><path class="a" d="M278.14,284.445a.815.815,0,1,0,.573.239A.818.818,0,0,0,278.14,284.445Z" transform="translate(-223.28 -238.307)"/><path class="a" d="M214.341,310.916a.811.811,0,1,0,.573.237A.817.817,0,0,0,214.341,310.916Z" transform="translate(-169.829 -260.484)"/><path class="a" d="M239.861,310.916a.812.812,0,1,0,.572.237A.817.817,0,0,0,239.861,310.916Z" transform="translate(-191.209 -260.484)"/></g></svg>