<svg xmlns="http://www.w3.org/2000/svg" width="48" height="62.387" viewBox="0 0 48 62.387"><g transform="translate(-47.939)"><g transform="translate(47.939)"><g transform="translate(19.058 11.606)"><g transform="translate(0 0)"><path d="M176.228,100.7a.75.75,0,0,1-.75-.75V80.262a3.81,3.81,0,0,0-.2-1.543.75.75,0,0,1,.571-1.36c.516.111,1.131.705,1.131,2.9V99.954A.75.75,0,0,1,176.228,100.7Z" transform="translate(-174.939 -77.342)"/></g><g transform="translate(7.845)"><path d="M227.966,100.7a.75.75,0,0,1-.75-.75V80.262c0-2.2.615-2.791,1.131-2.9a.75.75,0,0,1,.571,1.36,3.811,3.811,0,0,0-.2,1.543V99.954A.75.75,0,0,1,227.966,100.7Z" transform="translate(-227.216 -77.342)"/></g></g><path d="M95.939,55.917c-.532-17.206-2.61-27.951-4.259-33.934-1.744-6.327-3.379-8.831-3.559-9.095a10,10,0,0,0-5.552-3.794,5.077,5.077,0,0,0,.8-2.71,5.655,5.655,0,0,0-2.1-4.105C79.821,1.011,76.624,0,71.939,0h0c-4.682,0-7.665.848-9.325,2.277h0a5.656,5.656,0,0,0-2.1,4.107,5.078,5.078,0,0,0,.8,2.71,10,10,0,0,0-5.551,3.794c-.179.263-1.815,2.767-3.56,9.095-1.65,5.983-3.728,16.728-4.259,33.934,0,0,0,5.017,0,5.017a.75.75,0,0,0,.643.742s4.911.71,4.947.71a.751.751,0,0,0,.709-.506l1.65-4.8.569-1.9.721,3.185a.751.751,0,0,0,.732.585h28.06a.751.751,0,0,0,.732-.585l.721-3.185.569,1.9,1.649,4.8a.75.75,0,0,0,.709.506c.036,0,4.947-.71,4.947-.71a.75.75,0,0,0,.642-.742S95.939,55.922,95.939,55.917ZM63.536,3.487c.635-.735,2.55-1.986,8.4-1.986h0c5.733,0,7.673,1.218,8.344,1.92a1.322,1.322,0,0,1,.285,1.434c-.092-.017-1.4-.176-2.245-.229-1.708-.108-3.976-.167-6.385-.167s-4.677.059-6.385.167c-.844.053-2.153.212-2.245.229A1.207,1.207,0,0,1,63.536,3.487ZM79.389,6.212c-.339.267-2.349,1.679-2.957,2.161H67.446c-.607-.482-2.618-1.894-2.957-2.161,1.375-.132,3.917-.253,7.45-.253S78.014,6.08,79.389,6.212ZM53.02,60.805l-3.58-.52V56.8l4.732.654Zm3.729-34.178c-1.639,7.513-1.086,19.893-.768,24.915l-1.337,4.463-5.182-.716c.556-16.551,2.551-26.928,4.139-32.743a42.1,42.1,0,0,1,2.791-7.728C58.952,20.016,56.755,26.6,56.749,26.627ZM71.188,57.452H58.508l-.685-3.024H71.188Zm0-4.524H60.925V49.752a28.122,28.122,0,0,0,3.8-10.433h6.458v13.61Zm0-15.11H64.055a.75.75,0,0,0-.747.684,26.716,26.716,0,0,1-3.762,10.622.75.75,0,0,0-.122.41v3.393H57.581c-.237-3.313-1.136-17.8.626-25.94.232-.7,2.507-7.926-.916-13.659a9.331,9.331,0,0,1,5.1-2.976,22.175,22.175,0,0,0,2.219,1.7.75.75,0,1,0,.81-1.263,22.8,22.8,0,0,1-2.312-1.807A3.969,3.969,0,0,1,62.01,6.4a3.03,3.03,0,0,1,.075-.633,8.455,8.455,0,0,0,2.757,2.558,21.371,21.371,0,0,1,3.036,2.432,11.6,11.6,0,0,1,3.31,7.665C71.188,18.44,71.188,37.818,71.188,37.818Zm.751-23.365a12.755,12.755,0,0,0-2.828-4.58h5.655A12.76,12.76,0,0,0,71.939,14.452Zm13.431,43H72.69V54.429H86.054ZM72.69,52.928V39.318h6.458a28.131,28.131,0,0,0,3.805,10.433v3.176Zm13.608,0H84.454V49.535a.751.751,0,0,0-.122-.41A26.714,26.714,0,0,1,80.57,38.5a.75.75,0,0,0-.747-.684H72.69s0-19.326,0-19.333A12.734,12.734,0,0,1,76,10.757a21.393,21.393,0,0,1,3.036-2.433,8.451,8.451,0,0,0,2.757-2.558,3.035,3.035,0,0,1,.075.62,3.957,3.957,0,0,1-1.1,2.6,22.822,22.822,0,0,1-2.311,1.806.75.75,0,0,0,.81,1.263,22.2,22.2,0,0,0,2.219-1.7,9.334,9.334,0,0,1,5.1,2.976c-3.423,5.733-1.149,12.961-.916,13.659C87.433,35.125,86.535,49.615,86.3,52.928Zm.831-26.3c-.006-.028-2.2-6.611.358-11.809,1.634,3.252,6.054,14.348,6.93,40.472l-5.182.716L87.9,51.542C88.215,46.519,88.768,34.14,87.129,26.627Zm3.729,34.178-1.151-3.35,4.732-.654v3.484Z" transform="translate(-47.939)"/></g></g></svg>