<svg xmlns="http://www.w3.org/2000/svg" width="58" height="64.429" viewBox="0 0 58 64.429"><defs><style>.a{fill:none;stroke:#212121;stroke-linecap:round;stroke-linejoin:round;stroke-width:3px;}</style></defs><g transform="translate(-3 -1.423)"><path class="a" d="M38.75,22.173,11.25,6.315" transform="translate(7 3.435)"/><path class="a" d="M59.5,45.775V21.33a6.111,6.111,0,0,0-3.056-5.286L35.056,3.822a6.111,6.111,0,0,0-6.111,0L7.556,16.044A6.111,6.111,0,0,0,4.5,21.33V45.775a6.111,6.111,0,0,0,3.056,5.286L28.944,63.283a6.111,6.111,0,0,0,6.111,0L56.444,51.061A6.111,6.111,0,0,0,59.5,45.775Z" transform="translate(0 0)"/><path class="a" d="M4.9,10.44,31.58,25.871,58.255,10.44" transform="translate(0.42 7.712)"/><path class="a" d="M18,48.8V18" transform="translate(14 15.552)"/></g></svg>