<svg xmlns="http://www.w3.org/2000/svg" width="30" height="30" viewBox="0 0 30 30"><defs><style>.a{fill:#f5f5f5;}.b,.c{fill:none;stroke:#383838;stroke-linecap:round;stroke-linejoin:round;}.b{stroke-width:3px;}.c{stroke-width:4px;}</style></defs><g transform="translate(-3 -3)"><path class="a" d="M10.5,3h15A7.5,7.5,0,0,1,33,10.5v15A7.5,7.5,0,0,1,25.5,33h-15A7.5,7.5,0,0,1,3,25.5v-15A7.5,7.5,0,0,1,10.5,3Z" transform="translate(0 0)"/><path class="b" d="M24,17.055A6,6,0,1,1,18.945,12,6,6,0,0,1,24,17.055Z" transform="translate(0 0)"/><path class="c" d="M26.25,9.75h0" transform="translate(0 0)"/></g></svg>