<svg xmlns="http://www.w3.org/2000/svg" width="53" height="58.556" viewBox="0 0 53 58.556"><defs><style>.a{fill:none;stroke:#212121;stroke-linecap:round;stroke-linejoin:round;stroke-width:3px;}.b{fill:#212121;}</style></defs><g transform="translate(-3 -1.5)"><path class="a" d="M10.056,6H48.944A5.556,5.556,0,0,1,54.5,11.556V50.444A5.556,5.556,0,0,1,48.944,56H10.056A5.556,5.556,0,0,1,4.5,50.444V11.556A5.556,5.556,0,0,1,10.056,6Z" transform="translate(0 2.556)"/><path class="a" d="M24,3V14.111" transform="translate(16.611)"/><path class="a" d="M12,3V14.111" transform="translate(6.389)"/><path class="a" d="M4.5,15h50" transform="translate(0 7.222)"/><path class="b" d="M-2.1-9.48a7.913,7.913,0,0,1,.57,3.15,8.027,8.027,0,0,1-.48,2.82A5.492,5.492,0,0,1-4.185-.75,6.516,6.516,0,0,1-7.83.24,6.346,6.346,0,0,1-11.46-.81a5.874,5.874,0,0,1-2.25-2.88A7.716,7.716,0,0,1-14.1-6.3h3.3a4.817,4.817,0,0,0,.27,1.74,2.73,2.73,0,0,0,.99,1.47,2.723,2.723,0,0,0,1.68.54A2.534,2.534,0,0,0-5.22-4.29a5.2,5.2,0,0,0,.39-2.13,5.792,5.792,0,0,0-.42-2.46,2.69,2.69,0,0,0-2.61-1.59,3.59,3.59,0,0,0-1.59.75l-1.71-2.37L-6-17.22h-7.77v-2.79H-1.74v3.06l-4.23,4.32A4.471,4.471,0,0,1-2.1-9.48Z" transform="translate(36.7 51)"/></g></svg>