<svg xmlns="http://www.w3.org/2000/svg" id="svg-store">
	<symbol id="shopping-cart" viewBox="0 0 26 24.909">
		<g transform="translate(-0.5 -0.5)">
		<path d="M14.182,31.091A1.091,1.091,0,1,1,13.091,30,1.091,1.091,0,0,1,14.182,31.091Z" transform="translate(-2.864 -7.773)"/>
		<path d="M30.682,31.091A1.091,1.091,0,1,1,29.591,30,1.091,1.091,0,0,1,30.682,31.091Z" transform="translate(-7.364 -7.773)"/>
		<path d="M1.5,1.5H5.864L8.787,16.107a2.182,2.182,0,0,0,2.182,1.756h10.6a2.182,2.182,0,0,0,2.182-1.756L25.5,6.955H6.955" transform="translate(0 0)"/>
	</g>
	</symbol>
	<symbol id="user" viewBox="0 0 22 24.5">
		<g transform="translate(-5 -3.5)">
			<path class="a" d="M26,30V27.5a5,5,0,0,0-5-5H11a5,5,0,0,0-5,5V30" transform="translate(0 -3)"/>
			<path class="a" d="M22,9.5a5,5,0,1,1-5-5,5,5,0,0,1,5,5Z" transform="translate(-1)"/>
		</g>
	</symbol>
	<symbol id="left" viewBox="0 0 6.828 10.828">		
		<path d="M8,0,4,4,0,0" transform="translate(5.414 1.414) rotate(90)"/>
	</symbol>
	<symbol id="right" width="6.828" height="10.828" viewBox="0 0 6.828 10.828">
		<path d="M8,4,4,0,0,4" transform="translate(5.414 1.414) rotate(90)"/>
	</symbol>
	<symbol id="calendar-1" width="18.5" height="20.278" viewBox="0 0 18.5 20.278">
		<g transform="translate(-3.25 -1.75)">
			<path d="M6.278,6H18.722A1.778,1.778,0,0,1,20.5,7.778V20.222A1.778,1.778,0,0,1,18.722,22H6.278A1.778,1.778,0,0,1,4.5,20.222V7.778A1.778,1.778,0,0,1,6.278,6Z" transform="translate(0 -1.222)"/>
			<path d="M24,3V6.556" transform="translate(-7.944 0)"/>
			<path d="M12,3V6.556" transform="translate(-3.056 0)"/>
			<path d="M4.5,15h16" transform="translate(0 -4.889)"/>
		</g>
	</symbol>
	<symbol id="plus-square" width="18" height="18" viewBox="0 0 18 18">
		<g transform="translate(-1.342 -1.342)">
			<g class="a" transform="translate(-3.158 -3.158)">
				<path d="M6.5,4.5h14a2,2,0,0,1,2,2v14a2,2,0,0,1-2,2H6.5a2,2,0,0,1-2-2V6.5A2,2,0,0,1,6.5,4.5Z"/>
				<path d="M 6.5 6.5 L 6.5 20.5 L 20.5 20.49999046325684 L 20.49999046325684 6.5 L 6.5 6.5 M 6.5 4.5 L 20.49999046325684 4.5 C 21.60456085205078 4.5 22.5 5.395429611206055 22.5 6.5 L 22.5 20.49999046325684 C 22.5 21.60456085205078 21.60456085205078 22.5 20.49999046325684 22.5 L 6.5 22.5 C 5.395429611206055 22.5 4.5 21.60456085205078 4.5 20.49999046325684 L 4.5 6.5 C 4.5 5.395429611206055 5.395429611206055 4.5 6.5 4.5 Z"/>
			</g>
			<path d="M18,12v6.545" transform="translate(-7.658 -4.931)"/>
			<path d="M12,18h6.545" transform="translate(-4.931 -7.658)"/>
		</g>
	</symbol>
	<symbol id="check-square" width="15.414" height="14.316" viewBox="0 0 15.414 14.316">
		<g transform="translate(-3.5 -3.5)">
			<path d="M13.5,10.789l2.053,2.053L22.395,6" transform="translate(-4.895 -0.816)"/>
			<path d="M16.816,10.658v4.789a1.368,1.368,0,0,1-1.368,1.368H5.868A1.368,1.368,0,0,1,4.5,15.447V5.868A1.368,1.368,0,0,1,5.868,4.5h7.526" transform="translate(0 0)"/>
		</g>
	</symbol>
	<symbol id="star" width="16.5" height="15.765" viewBox="0 0 16.5 15.765">
		<path d="M10.5,3l2.318,4.7L18,8.453l-3.75,3.653.885,5.16L10.5,14.828,5.865,17.265l.885-5.16L3,8.453,8.182,7.7Z" transform="translate(-2.25 -2.25)"/>
	</symbol>
	<symbol id="icon-tag" width="20.686" height="20.495" viewBox="0 0 20.686 20.495">
		<g transform="translate(2.629 2.628)">
			<path d="M20.454,13.713l-6.732,6.732a1.878,1.878,0,0,1-2.657,0L3,12.389V3h9.389l8.065,8.065A1.878,1.878,0,0,1,20.454,13.713Z" transform="translate(-4.379 -4.378)"/>
			<path class="a" d="M10.5,10.5h0" transform="translate(-4.444 -5.873)"/>
		</g>
	</symbol>
	<symbol id="down" width="10.828" height="6.828" viewBox="0 0 10.828 6.828">
		<path d="M8,4,4,0,0,4" transform="translate(9.414 5.414) rotate(180)"/>
	</symbol>
	<symbol id="reply" width="15.307" height="15.721" viewBox="0 0 15.307 15.721">
		<g transform="translate(1 1)">
			<path d="M10.158,15,6,19.158l4.158,4.158" transform="translate(-6 -10.01)"/>
			<path d="M19.307,6v5.822a3.327,3.327,0,0,1-3.327,3.327H6" transform="translate(-6 -6)"/>
		</g>
	</symbol>
	<symbol id="check-circle1" width="18.414" height="17.158" viewBox="0 0 18.414 17.158">
		<g transform="translate(-3.5 -3.5)">
			<path d="M13.5,11.895l2.526,2.526L24.447,6" transform="translate(-3.947 -0.658)"/>
			<path d="M19.658,12.079v5.895a1.684,1.684,0,0,1-1.684,1.684H6.184A1.684,1.684,0,0,1,4.5,17.974V6.184A1.684,1.684,0,0,1,6.184,4.5h9.263" transform="translate(0 0)"/>
		</g>
	</symbol>
	<symbol id="check-circle" width="17" height="17" viewBox="0 0 17 17">
		<g transform="translate(-63 -63)">
			<path class="a" d="M79,71.5A7.5,7.5,0,1,0,71.5,79,7.5,7.5,0,0,0,79,71.5Z"/>
			<path class="b" d="M167.5,176l-5.25,6.25-2.25-2.5" transform="translate(-92.25 -107.625)"/>
		</g>
	</symbol>
	<symbol id="message" width="17" height="17" viewBox="0 0 17 17">
		<path d="M19.5,14.5a1.667,1.667,0,0,1-1.667,1.667h-10L4.5,19.5V6.167A1.667,1.667,0,0,1,6.167,4.5H17.833A1.667,1.667,0,0,1,19.5,6.167Z" transform="translate(-3.5 -3.5)"/>
	</symbol>
	<symbol id="inbox" width="23" height="18.8" viewBox="0 0 23 18.8">
		<g transform="translate(-2 -5)">
			<path class="a" d="M24,18H17.7l-2.1,3.15H11.4L9.3,18H3" transform="translate(0 -3.6)"/>
			<path class="a" d="M6.623,7.165,3,14.4v6.3a2.1,2.1,0,0,0,2.1,2.1H21.9A2.1,2.1,0,0,0,24,20.7V14.4L20.377,7.165A2.1,2.1,0,0,0,18.5,6H8.5a2.1,2.1,0,0,0-1.88,1.165Z"/>
		</g>
	</symbol>
	<symbol id="shopping-cart" width="26" height="24.909" viewBox="0 0 26 24.909">
		<g transform="translate(-0.5 -0.5)">
			<path class="a" d="M14.182,31.091A1.091,1.091,0,1,1,13.091,30,1.091,1.091,0,0,1,14.182,31.091Z" transform="translate(-2.864 -7.773)"/>
			<path class="a" d="M30.682,31.091A1.091,1.091,0,1,1,29.591,30,1.091,1.091,0,0,1,30.682,31.091Z" transform="translate(-7.364 -7.773)"/>
			<path class="a" d="M1.5,1.5H5.864L8.787,16.107a2.182,2.182,0,0,0,2.182,1.756h10.6a2.182,2.182,0,0,0,2.182-1.756L25.5,6.955H6.955" transform="translate(0 0)"/>
		</g>
	</symbol>
	<symbol id="file-text" width="19" height="23.25" viewBox="0 0 19 23.25">
		<g transform="translate(-5 -2)">
			<path class="a" d="M16.625,3h-8.5A2.125,2.125,0,0,0,6,5.125v17A2.125,2.125,0,0,0,8.125,24.25h12.75A2.125,2.125,0,0,0,23,22.125V9.375Z" transform="translate(0 0)"/>
			<path class="a" d="M21,3V9.375h6.375" transform="translate(-4.375 0)"/>
			<path class="a" d="M20.5,19.5H12" transform="translate(-1.75 -4.813)"/>
			<path class="a" d="M20.5,25.5H12" transform="translate(-1.75 -6.563)"/>
			<path class="a" d="M14.125,13.5H12" transform="translate(-1.75 -3.063)"/>
		</g>
	</symbol>
	<symbol id="map" width="22" height="20.182" viewBox="0 0 22 20.182">
		<g transform="translate(-0.5 -2)">
			<path class="a" d="M1.5,6.636V21.182l6.364-3.636,7.273,3.636L21.5,17.545V3L15.136,6.636,7.864,3Z"/>
			<path class="a" d="M12,3V17.545" transform="translate(-4.136)"/>
			<path class="a" d="M24,9V23.545" transform="translate(-8.864 -2.364)"/>
		</g>
	</symbol>
	<symbol id="life-buoy" width="22" height="22" viewBox="0 0 22 22">
		<g transform="translate(-2 -2)">
			<path class="a" d="M23,13A10,10,0,1,1,13,3,10,10,0,0,1,23,13Z"/>
			<path class="a" d="M20,16a4,4,0,1,1-4-4,4,4,0,0,1,4,4Z" transform="translate(-3 -3)"/>
			<path class="a" d="M7.4,7.4l4.24,4.24" transform="translate(-1.465 -1.465)"/>
			<path class="a" d="M22.245,22.245l4.24,4.24" transform="translate(-6.415 -6.415)"/>
			<path class="a" d="M22.245,11.635l4.24-4.24" transform="translate(-6.415 -1.465)"/>
			<path class="a" d="M22.245,11.99l3.53-3.53" transform="translate(-6.415 -1.82)"/>
			<path class="a" d="M7.4,26.485l4.24-4.24" transform="translate(-1.465 -6.415)"/>
		</g>
	</symbol>
	<symbol id="log-out" width="20" height="20" viewBox="0 0 20 20">
		<g transform="translate(-3.5 -3.5)">
			<path class="a" d="M10.5,22.5h-4a2,2,0,0,1-2-2V6.5a2,2,0,0,1,2-2h4"/>
			<path class="a" d="M24,20.5l5-5-5-5" transform="translate(-6.5 -2)"/>
			<path class="a" d="M25.5,18h-12" transform="translate(-3 -4.5)"/>
		</g>
	</symbol>
	<symbol id="close-circle" width="17" height="17" viewBox="0 0 17 17">
		<g transform="translate(-63 -63)">
			<path class="a" d="M79,71.5A7.5,7.5,0,1,0,71.5,79,7.5,7.5,0,0,0,79,71.5Z"/>
			<line class="b" x1="5" y1="5" transform="translate(69 69)"/>
			<line class="b" y1="5" x2="5" transform="translate(69 69)"/>
		</g>
	</symbol>
	<symbol id="arrow-right" width="14.414" height="14.283" viewBox="0 0 14.414 14.283">
		<g transform="translate(-5.5 -6.086)">
			<path class="a" d="M7.5,18H18.955" transform="translate(-1 -4.773)"/>
			<path class="b" d="M18,7.5l5.727,5.727L18,18.955" transform="translate(-5.227 0)"/>
		</g>
	</symbol>
	<symbol id="search" width="20.414" height="20.414" viewBox="0 0 20.414 20.414">
		<g transform="translate(1 1)">
			<path class="a" d="M20.5,12.5a8,8,0,1,1-8-8,8,8,0,0,1,8,8Z" transform="translate(-4.5 -4.5)"/>
			<path class="a" d="M29.325,29.325l-4.35-4.35" transform="translate(-11.325 -11.325)"/>
		</g>
	</symbol>
	<symbol id="information" width="17" height="17" viewBox="0 0 17 17">
		<g transform="translate(-63 -63)">
			<path class="a" d="M71.5,64A7.5,7.5,0,1,0,79,71.5,7.5,7.5,0,0,0,71.5,64Z"/>
			<path class="b" d="M220,220h1.3v4.728" transform="translate(-149.641 -149.641)"/>
			<line class="c" x2="3.587" transform="translate(69.87 75.25)"/>
			<path class="d" d="M223.06,130a1.06,1.06,0,1,0,1.06,1.06A1.06,1.06,0,0,0,223.06,130Z" transform="translate(-151.56 -63.31)"/>
		</g>
	</symbol>
	<symbol id="info" width="22" height="22" viewBox="0 0 22 22">		
		<g transform="translate(-2 -2)">
			<path d="M23,13A10,10,0,1,1,13,3,10,10,0,0,1,23,13Z" transform="translate(0 0)"/>
			<path d="M18,22V18" transform="translate(-5 -5)"/>
			<path d="M18,12h0" transform="translate(-5 -3)"/>
		</g>
	</symbol>
	<symbol id="plus" width="12" height="12" viewBox="0 0 12 12">
		<g transform="translate(-6.5 -6.5)">
			<path d="M18,7.5v10" transform="translate(-5.5 0)"/>
			<path d="M7.5,18h10" transform="translate(0 -5.5)"/>
		</g>
	</symbol>
	<svg id="send" width="19.35" height="19.35" viewBox="0 0 19.35 19.35">
		<g transform="translate(-2.594 -2.056)">
			<path class="a" d="M26.4,3l-9.9,9.9" transform="translate(-5.4 0)"/>
			<path class="b" d="M21,3,14.7,21l-3.6-8.1L3,9.3Z" transform="translate(0 0)"/>
		</g>
	</svg>
	<symbol id="upload-cloud" width="24.023" height="19.855" viewBox="0 0 24.023 19.855">
		<g transform="translate(1.155 1.021)">
			<path d="M19.927,21.964,15.964,18,12,21.964" transform="translate(-5.058 -9.084)"/>
			<path d="M18,18v8.918" transform="translate(-7.095 -9.084)"/>
			<path d="M20.711,19.751a4.955,4.955,0,0,0-2.368-9.3H17.094A7.927,7.927,0,1,0,3.479,17.68" transform="translate(-1.492 -4.503)"/>
			<path d="M19.927,21.964,15.964,18,12,21.964" transform="translate(-5.058 -9.084)"/>
		</g>
	</symbol>
	<symbol id="trash" width="15" height="16.444" viewBox="0 0 15 16.444">
		<g transform="translate(-3.5 -2)">
			<path d="M4.5,9h13" transform="translate(0 -3.111)"/>
			<path d="M17.611,5.889V16a1.444,1.444,0,0,1-1.444,1.444H8.944A1.444,1.444,0,0,1,7.5,16V5.889m2.167,0V4.444A1.444,1.444,0,0,1,11.111,3H14a1.444,1.444,0,0,1,1.444,1.444V5.889" transform="translate(-1.556 0)"/>
		</g>
	</symbol>
	<symbol id="x" width="15" height="16.444" viewBox="0 0 15 16.444">
		<g transform="translate(-3.5 -2)">
			<path d="M4.5,9h13" transform="translate(0 -3.111)"/>
			<path d="M17.611,5.889V16a1.444,1.444,0,0,1-1.444,1.444H8.944A1.444,1.444,0,0,1,7.5,16V5.889m2.167,0V4.444A1.444,1.444,0,0,1,11.111,3H14a1.444,1.444,0,0,1,1.444,1.444V5.889" transform="translate(-1.556 0)"/>
		</g>
	</symbol>
	<symbol id="menu" width="15" height="16.444" viewBox="0 0 15 16.444">
		<g transform="translate(-3.5 -2)">
			<path d="M4.5,9h13" transform="translate(0 -3.111)"/>
			<path d="M17.611,5.889V16a1.444,1.444,0,0,1-1.444,1.444H8.944A1.444,1.444,0,0,1,7.5,16V5.889m2.167,0V4.444A1.444,1.444,0,0,1,11.111,3H14a1.444,1.444,0,0,1,1.444,1.444V5.889" transform="translate(-1.556 0)"/>
		</g>
	</symbol>
</svg>