<svg xmlns="http://www.w3.org/2000/svg" width="100" height="99.727" viewBox="0 0 100 99.727"><defs><style>.a{fill:#f9a825;opacity:0.25;}</style></defs><path class="a" d="M-1916.03,150.341c-3.145-.837-5.1-4.817-6.628-8.671-.833-2.118-1.7-4.309-2.692-5.3-1.38-.878-4.209-.447-6.484-.1-3.921.594-8.369,1.264-11.087-1.454s-2.048-7.166-1.453-11.087c.338-2.272.77-5.1.187-6.111-1.313-1.365-3.481-2.228-5.6-3.062-3.847-1.516-7.834-3.474-8.669-6.632-.974-3.644,1.679-6.967,4.243-10.18,1.461-1.83,3.282-4.109,3.282-5.341s-1.819-3.507-3.283-5.342c-2.563-3.212-5.215-6.543-4.242-10.18.956-3.6,4.88-5.144,8.672-6.635,2.21-.868,4.954-1.951,5.6-3.058.583-1.011.155-3.843-.188-6.112-.539-3.541-1.139-7.508.748-10.248h74.966a10,10,0,0,1,10,10v74.493c-2.746,2.127-6.861,1.505-10.516.948-2.271-.347-5.1-.77-6.111-.187-1.1.638-2.191,3.386-3.057,5.6-1.5,3.792-3.044,7.711-6.636,8.671-3.641.977-6.968-1.678-10.183-4.244-1.83-1.461-4.109-3.283-5.342-3.283s-3.5,1.823-5.337,3.286c-2.749,2.194-5.575,4.449-8.616,4.449A6.045,6.045,0,0,1-1916.03,150.341Zm27.944-29.618a2.613,2.613,0,0,0,.49,3.013l.074.074a2.6,2.6,0,0,0,3.113.324l18.442-11.065a2.6,2.6,0,0,0,.888-3.582,2.594,2.594,0,0,0-3.578-.892l-10.759,6.458,3.371-6.743c1-2.006-1.49-4.5-3.5-3.5l-6.742,3.371,6.458-10.759a2.621,2.621,0,0,0-.389-3.188,2.514,2.514,0,0,0-.5-.391,2.612,2.612,0,0,0-3.578.893l-11.065,18.443a2.609,2.609,0,0,0,.324,3.113,2.485,2.485,0,0,0,3.081.563l7.753-3.88Zm-10.575-41.24-14.754,14.753a2.61,2.61,0,0,0,0,3.689l7.377,7.377a2.61,2.61,0,0,0,3.688,0,2.61,2.61,0,0,0,0-3.689l-5.532-5.532,3.688-3.688,5.532,5.532a2.609,2.609,0,0,0,3.689,0,2.61,2.61,0,0,0,0-3.688L-1900.5,88.7l3.688-3.689,5.533,5.533a2.61,2.61,0,0,0,3.688,0,2.61,2.61,0,0,0,0-3.689l-7.376-7.376a2.6,2.6,0,0,0-1.844-.764A2.6,2.6,0,0,0-1898.661,79.484Zm-22.868,8.851a2.612,2.612,0,0,0,.738,2.213,2.5,2.5,0,0,0,.679.487,2.609,2.609,0,0,0,3.01-.487l14.754-14.754a2.61,2.61,0,0,0,0-3.688,2.61,2.61,0,0,0-3.689,0l-9.221,9.221,2.583-18.074a2.605,2.605,0,0,0-1.417-2.7,2.609,2.609,0,0,0-3.01.487l-14.754,14.754a2.61,2.61,0,0,0,0,3.689,2.61,2.61,0,0,0,3.688,0l9.221-9.221Z" transform="translate(1958.66 -50.822)"/></svg>