<svg xmlns="http://www.w3.org/2000/svg" width="60" height="47.978" viewBox="0 0 60 47.978"><path d="M59.975,76.9c-3.335-13.211-8.144-22.192-11.59-27.4a42.487,42.487,0,0,0-6.774-8.256A5.623,5.623,0,0,1,40.5,38a.808.808,0,0,0-.808-.817H20.31A.808.808,0,0,0,19.5,38a5.658,5.658,0,0,1-1.114,3.241A42.48,42.48,0,0,0,11.614,49.5C8.168,54.708,3.36,63.69.024,76.9a.808.808,0,0,0,.119.658c.215.311,5.545,7.606,29.856,7.606s29.641-7.295,29.856-7.606A.807.807,0,0,0,59.975,76.9Zm-5.049,2.356a26.958,26.958,0,0,1-3.734,1.551,83.571,83.571,0,0,0-8.355-28.9A52.25,52.25,0,0,0,37.4,43.3c.286-.034.554-.07.807-.105C49.369,53.263,54.291,76.1,54.926,79.257ZM30,83.548c-1.658,0-3.219-.036-4.695-.1C26.235,60.9,28.746,49.73,30,45.42c1.257,4.3,3.761,15.423,4.692,38.03Q32.479,83.545,30,83.548ZM25.639,43.571a70.68,70.68,0,0,0-4.511,9.942,94.686,94.686,0,0,0-5.7,28.912,48.981,48.981,0,0,1-5.046-1.143,82.149,82.149,0,0,1,8.181-28.569,47.56,47.56,0,0,1,5.981-9.219Q25.065,43.536,25.639,43.571ZM22.624,54.128a66.539,66.539,0,0,1,4.835-10.472q.662.022,1.379.032c-1.116,3.293-4.1,14.261-5.148,39.676-2.484-.151-4.693-.388-6.656-.679A93.1,93.1,0,0,1,22.624,54.128Zm8.537-10.44q.717-.01,1.379-.032a66.548,66.548,0,0,1,4.835,10.472A93.089,93.089,0,0,1,42.965,82.7c-1.975.291-4.185.523-6.657.67C35.261,57.949,32.277,46.98,31.161,43.688Zm7.71,9.826a70.653,70.653,0,0,0-4.511-9.942q.573-.035,1.1-.077a47.561,47.561,0,0,1,5.981,9.219A82.155,82.155,0,0,1,49.62,81.3a48.34,48.34,0,0,1-5.047,1.143A94.7,94.7,0,0,0,38.871,53.514ZM21.06,38.8h17.88a7.451,7.451,0,0,0,.772,2.5A49.724,49.724,0,0,1,30,42.08a49.94,49.94,0,0,1-9.711-.78A7.444,7.444,0,0,0,21.06,38.8ZM1.694,76.892a87.381,87.381,0,0,1,11.22-26.427A44.369,44.369,0,0,1,19.18,42.71c.163.041.37.09.623.143-4.785,4.714-8.946,12.065-12.383,21.89A113.853,113.853,0,0,0,3.6,78.4,10.329,10.329,0,0,1,1.694,76.892Zm3.381,2.352c.646-3.2,5.569-25.994,16.716-36.047.253.036.521.071.807.105a52.278,52.278,0,0,0-5.437,8.6A83.568,83.568,0,0,0,8.808,80.794,20.176,20.176,0,0,1,5.075,79.244ZM56.4,78.411A113.862,113.862,0,0,0,52.58,64.743c-3.437-9.825-7.6-17.176-12.384-21.889.253-.054.46-.1.623-.144C42.683,44.466,52.6,54.627,58.306,76.9A10.08,10.08,0,0,1,56.4,78.411Z" transform="translate(0.001 -37.186)"/></svg>